<?xml version="1.0" encoding="UTF-8"?>
<!DOCTYPE svg PUBLIC "-//W3C//DTD SVG 1.1//EN" "http://www.w3.org/Graphics/SVG/1.1/DTD/svg11.dtd">
<!-- Creator: CorelDRAW 2020 (64 Bit) -->
<svg xmlns="http://www.w3.org/2000/svg" xml:space="preserve" width="210mm" height="210mm" version="1.1" style="shape-rendering:geometricPrecision; text-rendering:geometricPrecision; image-rendering:optimizeQuality; fill-rule:evenodd; clip-rule:evenodd"
viewBox="0 0 21000 21000"
 xmlns:xlink="http://www.w3.org/1999/xlink"
 xmlns:xodm="http://www.corel.com/coreldraw/odm/2003">
 <defs>
   <clipPath id="id0">
    <path d="M2976.58 16509c148.1,55.23 41.47,-11.05 207.34,165.71 136.26,154.66 242.89,292.75 396.92,425.32l-438.39 -386.66c-35.54,-33.14 -47.39,-44.19 -77.01,-77.33 -11.85,-11.05 -88.86,-127.04 -88.86,-127.04zm17031.95 -9053.32c-479.86,-1182.07 -1309.24,-2347.56 -2357.81,-3292.11 -1753.55,-1673.68 -4360.18,-2756.32 -6765.39,-2717.65l0 77.33c4218,104.95 8376.76,3303.16 9123.2,7584.01 53.32,325.9 77.02,927.98 118.48,1248.36 337.68,55.23 337.68,127.04 468.01,265.13 5.93,-795.41 -272.51,-2402.8 -586.49,-3165.07zm-41.47 3910.77c-829.38,198.85 -515.4,1469.3 343.6,1237.3 764.22,-209.9 527.25,-1452.72 -343.6,-1237.3zm-2813.97 5313.78c-35.55,11.05 -248.82,215.42 -302.14,265.14l-977.48 773.31c-1415.88,1010.84 -3359,1684.73 -5213.26,1734.44l-5.92 -18714.23 -604.27 0 -11.85 19476.5c4158.76,-49.72 9152.83,-3071.17 9999.98,-7352.02 -627.96,1623.96 -2067.53,3535.15 -3436.01,4545.99l550.95 -729.13zm-16149.26 -4413.42l29.62 82.85c35.55,-237.51 -47.39,-469.51 -65.16,-673.88 65.16,270.66 189.57,480.56 272.51,751.22 142.18,486.08 450.23,1391.96 740.52,1795.19 41.47,66.29 47.39,93.91 88.86,160.19 77.01,127.04 11.85,16.57 82.94,44.19 35.54,187.8 580.57,950.07 740.52,1309.11 -290.29,-320.37 -704.98,-1248.35 -936.02,-1342.25l722.75 1336.73c94.79,149.14 183.65,276.18 260.66,403.23 -88.86,-60.76 -213.27,-198.86 -296.21,-281.71l-521.32 -629.7c-88.86,-127.05 -148.11,-215.42 -231.04,-342.47 -473.94,-695.98 -616.12,-1414.06 -722.75,-1574.25 65.16,662.84 598.34,1546.63 959.71,2104.52 -580.57,-524.75 -1285.54,-2469.08 -1238.15,-3308.68 -29.62,110.47 88.87,591.03 159.96,684.94l-59.25 -618.66c5.93,27.62 5.93,66.29 11.85,99.43zm533.18 -5866.15c23.69,-187.81 100.71,-237.52 177.72,-386.66 231.04,-419.8 313.98,-585.51 734.6,-927.98 -130.33,463.99 -550.95,1104.74 -912.32,1314.64zm-965.64 6545.56c-47.39,-226.47 -88.86,-458.46 -88.86,-690.46 811.61,4485.23 4851.88,7479.07 9241.68,7959.63 -1907.58,-436.37 -4443.12,-1469.3 -5841.22,-2877.84 -124.4,-127.05 213.27,22.09 -266.58,-463.99l-710.9 -878.27c-65.17,-104.95 -148.11,-220.94 -171.8,-370.08 88.86,88.38 94.78,193.33 272.51,381.13 59.24,66.29 88.86,116 142.18,187.81 574.64,789.88 740.52,933.5 1409.95,1535.58 100.71,93.9 254.74,204.38 367.29,292.76 124.41,99.42 225.12,198.85 373.23,287.23 -53.32,-66.29 -29.62,-33.15 -88.87,-88.38 -47.39,-49.72 -53.31,-55.24 -94.78,-88.38 -82.94,-66.29 -130.33,-116 -207.35,-176.76 -408.76,-342.47 -734.59,-789.89 -1060.42,-1209.68 -349.53,-458.47 -918.25,-2165.29 -965.64,-2049.29 0,5.52 -23.7,-5.52 -29.62,-5.52 -171.8,-38.67 -189.57,-226.48 -213.27,-375.61 -254.74,-143.62 -325.83,-480.57 -385.07,-756.75 -77.01,27.62 -11.85,33.14 -124.41,49.71 -154.03,-171.23 -402.84,-458.46 -485.78,-723.6l5.93 138.09c17.77,38.67 41.46,88.38 59.24,132.57 88.86,193.33 290.28,673.89 302.13,856.17 -65.17,-204.37 -491.71,-1032.93 -450.24,-1171.02 47.4,-193.33 -65.16,-375.61 -136.25,-712.55 -1273.7,-5821.96 2831.74,-9942.63 8394.53,-10605.47l0 -77.33c-3086.49,-49.72 -5977.48,1563.2 -7855.43,3999.14 -118.49,154.67 -136.26,237.52 -225.12,397.71 -77.02,138.09 -159.95,237.52 -248.82,386.66 -213.27,342.46 -468.01,850.64 -627.96,1248.35 -402.84,988.74 -598.34,2154.23 -586.49,3236.87 5.93,419.8 148.1,1983.01 296.21,2231.57l0 0z"/>
   </clipPath>
 </defs>
 <g id="Camada_x0020_1">
  <metadata id="CorelCorpID_0Corel-Layer"/>
  <g style="clip-path:url(#id0)">
   <image x="138.91" y="738.89" width="20900.43" height="19487.55" xlink:href="LogoLinkoraSVG_Images\LogoLinkoraSVG_ImgID1.png"/>
  </g>
 </g>
</svg>
